<?xml version="1.0" encoding="utf-8"?>
<!-- Generator: Adobe Illustrator 24.2.3, SVG Export Plug-In . SVG Version: 6.00 Build 0)  -->
<svg version="1.1" id="Layer_1" xmlns="http://www.w3.org/2000/svg" xmlns:xlink="http://www.w3.org/1999/xlink" x="0px" y="0px"
	 viewBox="0 0 2365.9 2162.1" style="enable-background:new 0 0 2365.9 2162.1;" xml:space="preserve">
<style type="text/css">
	.st0{fill:none;stroke:#EE352E;stroke-width:35;stroke-linejoin:round;}
	.st1{fill:#FFFFFF;stroke:#4D4D4D;stroke-width:6;}
	.st2{fill:none;stroke:#FFFFFF;stroke-width:11;}
	.st3{fill:#FFFFFF;}
</style>
<path id="RedLine" class="st0" d="M1117.7,0v101.8l-43.2,43.2v4.1v659.9l97,224.6v1128.5"/>
<g id="_1">
	<path id="circle11956" class="st1" d="M1091,181.1c0,9.4-7.6,17-17,17s-17-7.6-17-17s7.6-17,17-17l0,0
		C1083.4,164.1,1091,171.8,1091,181.1z"/>
	<g>
		<g>
			<g>
				<polyline class="st2" points="1075,180.6 804.5,183.2 648.5,295.6 370.4,341.3 				"/>
				<g>
					<path class="st3" d="M304.9,352c28.9-16.5,64-42.3,84.3-66.8L379,339.9l27.1,48.6C379.1,371.6,337.6,358.4,304.9,352z"/>
				</g>
			</g>
		</g>
	</g>
</g>
<g id="_2">
	<path id="circle11956-2" class="st1" d="M1088.5,356.6c13.9,18.2-6.7,38.8-24.9,24.9C1049.7,363.3,1070.2,342.7,1088.5,356.6z"/>
	<g>
		<polyline class="st2" points="1074.3,369.4 1357.5,191.6 1782.6,195.1 		"/>
		<path class="st3" d="M1849,195.6c-31.3,11.3-70.2,30.8-94.4,51.6l19.3-52.2l-18.5-52.5C1779.3,163.7,1817.9,183.8,1849,195.6z"/>
	</g>
</g>
<g id="_3">
	<path id="circle11956-3" class="st1" d="M1092,557.7c0,9.4-7.6,17-17,17s-17-7.6-17-17s7.6-17,17-17S1092,548.3,1092,557.7
		L1092,557.7z"/>
	<g>
		<path class="st2" d="M1074,557.5l-132.5-87.6c-7.2-4.7-15.6-7.3-24.2-7.2l-279.2,1.8c-8.3,0-16.5,1.9-24,5.5l-166.7,80.1
			c-9.5,4.6-20,7-30.5,7H118.4"/>
		<path class="st3" d="M52,557.2c31.2-11.6,70-31.4,94-52.3l-18.9,52.3l18.9,52.3C122,588.5,83.2,568.8,52,557.2z"/>
	</g>
</g>
<g id="_5">
	<path id="circle11956-4" class="st1" d="M1142.5,917.9c0,9.4-7.6,17-17,17s-17-7.6-17-17s7.6-17,17-17l0,0
		C1134.9,900.9,1142.5,908.6,1142.5,917.9z"/>
	<g>
		<polyline class="st2" points="1122.7,917.9 839.5,1095.7 414.4,1092.2 		"/>
		<path class="st3" d="M348,1091.7c31.3-11.3,70.2-30.8,94.4-51.6l-19.3,52.2l18.5,52.5C417.7,1123.6,379.1,1103.5,348,1091.7z"/>
	</g>
</g>
<g id="_4">
	<path id="circle11956-5" class="st1" d="M1091.4,730.5c0,9.4-7.6,17-17,17s-17-7.6-17-17s7.6-17,17-17l0,0
		C1083.8,713.5,1091.4,721.1,1091.4,730.5z"/>
	<g>
		<polyline class="st2" points="1074.3,731.4 1542,738.2 1679.5,557.7 2201.6,557.7 		"/>
		<path class="st3" d="M2268,557.7c-31.2,11.6-70,31.4-94,52.3l18.9-52.3l-18.9-52.3C2198,526.3,2236.8,546.1,2268,557.7z"/>
	</g>
</g>
<g id="_6">
	<path id="circle11956-6" class="st1" d="M1188.9,1097.3c0,9.4-7.6,17-17,17s-17-7.6-17-17s7.6-17,17-17
		S1188.9,1087.9,1188.9,1097.3L1188.9,1097.3z"/>
	<g>
		<polyline class="st2" points="1172.3,1097 1639.9,1103.8 1777.4,923.2 2299.6,923.2 		"/>
		<path class="st3" d="M2365.9,923.2c-31.2,11.6-70,31.4-94,52.3l18.9-52.3l-18.9-52.3C2296,891.9,2334.7,911.7,2365.9,923.2z"/>
	</g>
</g>
<g id="_7">
	<path id="circle11956-7" class="st1" d="M1188.4,1314.3c0,9.4-7.6,17-17,17s-17-7.6-17-17s7.6-17,17-17l0,0
		C1180.8,1297.3,1188.4,1304.9,1188.4,1314.3z"/>
	<g>
		<polyline class="st2" points="1172.5,1314.7 902.1,1312.2 746.1,1200.2 394.9,1203.6 		"/>
		<path class="st3" d="M328.6,1204.2c31.1-11.9,69.7-32,93.5-53.2l-18.4,52.5l19.4,52.1C398.8,1234.9,359.9,1215.5,328.6,1204.2z"/>
	</g>
</g>
<g id="_8">
	<path id="circle11956-8" class="st1" d="M1188.9,1530.6c0,9.4-7.6,17-17,17s-17-7.6-17-17s7.6-17,17-17
		S1188.9,1521.2,1188.9,1530.6L1188.9,1530.6z"/>
	<g>
		<path class="st2" d="M1172.2,1530.3l132.5-87.6c7.2-4.7,15.6-7.2,24.2-7.2l279.2,1.8c8.3,0,16.5,1.9,24,5.5l166.7,80.1
			c9.5,4.6,20,7,30.5,6.9h298.6"/>
		<path class="st3" d="M2194.2,1530c-31.2,11.6-70,31.4-94,52.3l18.9-52.3l-18.9-52.3C2124.2,1498.6,2162.9,1518.4,2194.2,1530z"/>
	</g>
</g>
<g id="_9">
	<path id="circle11956-9" class="st1" d="M1188.9,1779.6c0,9.4-7.6,17-17,17s-17-7.6-17-17s7.6-17,17-17l0,0
		C1181.3,1762.6,1188.9,1770.2,1188.9,1779.6z"/>
	<g>
		<polyline class="st2" points="1171,1779.3 1441.5,1781.8 1597.5,1893.8 1948.6,1890.5 		"/>
		<path class="st3" d="M2015,1889.8c-31.1,11.9-69.7,32-93.5,53.2l18.4-52.5l-19.4-52.1C1944.7,1859.2,1983.6,1878.6,2015,1889.8z"
			/>
	</g>
</g>
<g id="_10">
	<path id="circle11956-10" class="st1" d="M1184.2,1978.2c13.9,18.2-6.7,38.8-24.9,24.9C1145.4,1984.9,1166,1964.3,1184.2,1978.2z"
		/>
	<g>
		<polyline class="st2" points="1172.4,1992.8 810.9,1991.1 623.5,1702.7 66.4,1702.7 		"/>
		<path class="st3" d="M0,1702.7c31.2-11.6,70-31.4,94-52.3l-18.9,52.3L94,1755C70,1734,31.2,1714.2,0,1702.7z"/>
	</g>
</g>
</svg>
