<?xml version="1.0" encoding="utf-8"?>
<!-- Generator: Adobe Illustrator 25.1.0, SVG Export Plug-In . SVG Version: 6.00 Build 0)  -->
<svg version="1.1" id="Layer_1" xmlns="http://www.w3.org/2000/svg" xmlns:xlink="http://www.w3.org/1999/xlink" x="0px" y="0px"
	 viewBox="0 0 3840 2160" enable-background="new 0 0 3840 2160" xml:space="preserve">
<path id="RedLine" fill="none" stroke="#EE352E" stroke-width="35" stroke-linejoin="round" d="M1790.7-0.1v101.8l-43.2,43.2l0,4.1
	l0,659.9l97,224.6V2162"/>
<g id="_x31_">
	<path id="circle11956_9_" fill="#FFFFFF" stroke="#4D4D4D" stroke-width="6" d="M1764,181c0,9.4-7.6,17-17,17s-17-7.6-17-17
		s7.6-17,17-17S1764,171.6,1764,181z"/>
	<g>
		<g>
			<polyline fill="none" stroke="#FFFFFF" stroke-width="11" points="1748,181 1477.5,183.5 1321.5,295.5 970.4,292.1 			"/>
			<g>
				<path fill="#FFFFFF" d="M904,291.5c31.3-11.3,70.3-30.7,94.5-51.4l-19.4,52.1l18.4,52.5C973.7,323.5,935.1,303.4,904,291.5z"/>
			</g>
		</g>
	</g>
</g>
<g id="_x32_">
	<path id="circle11956_8_" fill="#FFFFFF" stroke="#4D4D4D" stroke-width="6" d="M1761.5,356.4c13.9,18.2-6.7,38.8-24.9,24.9
		C1722.7,363.1,1743.2,342.5,1761.5,356.4z"/>
	<g>
		<g>
			<polyline fill="none" stroke="#FFFFFF" stroke-width="11" points="1747.3,369.3 2030.5,191.5 2455.6,195 			"/>
			<g>
				<path fill="#FFFFFF" d="M2522,195.5c-31.3,11.3-70.2,30.8-94.4,51.5l19.3-52.2l-18.5-52.5C2452.3,163.6,2490.9,183.7,2522,195.5
					z"/>
			</g>
		</g>
	</g>
</g>
<g id="_x33_">
	<path id="circle11956_2_" fill="#FFFFFF" stroke="#4D4D4D" stroke-width="6" d="M1765,557.6c0,9.4-7.6,17-17,17
		c-9.4,0-17-7.6-17-17c0-9.4,7.6-17,17-17C1757.4,540.5,1765,548.2,1765,557.6z"/>
	<g>
		<g>
			<path fill="none" stroke="#FFFFFF" stroke-width="11" d="M1747,557.4l-132.5-87.6c-7.2-4.7-15.6-7.2-24.2-7.2l-279.2,1.8
				c-8.3,0.1-16.5,1.9-24,5.5l-166.7,80.1c-9.5,4.6-20,7-30.5,7H791.4"/>
			<g>
				<path fill="#FFFFFF" d="M725,557c31.2-11.6,70-31.4,94-52.3L800.1,557l18.9,52.3C795,588.4,756.2,568.6,725,557z"/>
			</g>
		</g>
	</g>
</g>
<g id="_x35_">
	<path id="circle11956_1_" fill="#FFFFFF" stroke="#4D4D4D" stroke-width="6" d="M1815.5,917.8c0,9.4-7.6,17-17,17s-17-7.6-17-17
		c0-9.4,7.6-17,17-17S1815.5,908.4,1815.5,917.8z"/>
	<g>
		<g>
			<polyline fill="none" stroke="#FFFFFF" stroke-width="11" points="1795.7,917.7 1512.5,1095.5 1087.4,1092 			"/>
			<g>
				<path fill="#FFFFFF" d="M1021,1091.5c31.3-11.3,70.2-30.8,94.4-51.5l-19.3,52.2l18.5,52.5
					C1090.7,1123.4,1052.1,1103.3,1021,1091.5z"/>
			</g>
		</g>
	</g>
</g>
<g id="_x34_">
	<path id="circle11956_7_" fill="#FFFFFF" stroke="#4D4D4D" stroke-width="6" d="M1764.4,730.3c0,9.4-7.6,17-17,17
		c-9.4,0-17-7.6-17-17c0-9.4,7.6-17,17-17C1756.8,713.3,1764.4,720.9,1764.4,730.3z"/>
	<g>
		<g>
			<polyline fill="none" stroke="#FFFFFF" stroke-width="11" points="1747.3,731.3 2215,738 2352.5,557.5 2874.6,557.5 			"/>
			<g>
				<path fill="#FFFFFF" d="M2941,557.5c-31.2,11.6-70,31.4-94,52.3l18.9-52.3l-18.9-52.3C2871,526.1,2909.8,545.9,2941,557.5z"/>
			</g>
		</g>
	</g>
</g>
<g id="_x36_">
	<g>
		<path id="circle11956_3_" fill="#FFFFFF" stroke="#4D4D4D" stroke-width="6" d="M1861.9,1097.2c0,9.4-7.6,17-17,17s-17-7.6-17-17
			c0-9.4,7.6-17,17-17S1861.9,1087.8,1861.9,1097.2z"/>
	</g>
	<g>
		<g>
			<polyline fill="none" stroke="#FFFFFF" stroke-width="11" points="1845.3,1096.9 2312.9,1103.6 2450.4,923.1 2972.6,923.1 			"/>
			<g>
				<path fill="#FFFFFF" d="M3038.9,923.1c-31.2,11.6-70,31.4-94,52.3l18.9-52.3l-18.9-52.3C2968.9,891.7,3007.7,911.5,3038.9,923.1
					z"/>
			</g>
		</g>
	</g>
</g>
<g id="_x37_">
	<path id="circle11956_4_" fill="#FFFFFF" stroke="#4D4D4D" stroke-width="6" d="M1861.4,1314.2c0,9.4-7.6,17-17,17s-17-7.6-17-17
		s7.6-17,17-17S1861.4,1304.8,1861.4,1314.2z"/>
	<g>
		<g>
			<g>
				<polyline fill="none" stroke="#FFFFFF" stroke-width="11" points="1845.5,1314.6 1575.1,1312 1419.1,1200 1067.9,1203.4 				"/>
				<g>
					<path fill="#FFFFFF" d="M1001.6,1204c31.1-11.9,69.7-32,93.5-53.2l-18.4,52.5l19.4,52.1
						C1071.9,1234.7,1032.9,1215.3,1001.6,1204z"/>
				</g>
			</g>
		</g>
	</g>
</g>
<g id="_x38_">
	<path id="circle11956_5_" fill="#FFFFFF" stroke="#4D4D4D" stroke-width="6" d="M1861.9,1530.5c0,9.4-7.6,17-17,17s-17-7.6-17-17
		s7.6-17,17-17S1861.9,1521.1,1861.9,1530.5z"/>
	<g>
		<g>
			<polyline fill="none" stroke="#FFFFFF" stroke-width="11" points="1845.2,1530.2 1988.7,1435.3 2293.7,1437.3 2486.2,1529.8 
				2800.8,1529.8 			"/>
			<g>
				<path fill="#FFFFFF" d="M2867.2,1529.8c-31.2,11.6-70,31.4-94,52.3l18.9-52.3l-18.9-52.3
					C2797.2,1498.5,2835.9,1518.3,2867.2,1529.8z"/>
			</g>
		</g>
	</g>
</g>
<g id="_x39__1_">
	<path id="circle11956_6_" fill="#FFFFFF" stroke="#4D4D4D" stroke-width="6" d="M1861.9,1779.5c0,9.4-7.6,17-17,17s-17-7.6-17-17
		s7.6-17,17-17S1861.9,1770.1,1861.9,1779.5z"/>
	<g>
		<g>
			<g>
				<polyline fill="none" stroke="#FFFFFF" stroke-width="11" points="1844,1779.2 2114.5,1781.7 2270.5,1893.7 2621.6,1890.3 				
					"/>
				<g>
					<path fill="#FFFFFF" d="M2688,1889.7c-31.1,11.9-69.7,32-93.5,53.2l18.4-52.5l-19.4-52.1
						C2617.7,1859,2656.6,1878.4,2688,1889.7z"/>
				</g>
			</g>
		</g>
	</g>
</g>
<g id="_x31_0">
	<path id="circle11956_10_" fill="#FFFFFF" stroke="#4D4D4D" stroke-width="6" d="M1857.2,1978c13.9,18.2-6.7,38.8-24.9,24.9
		C1818.4,1984.7,1839,1964.1,1857.2,1978z"/>
	<g>
		<g>
			<polyline fill="none" stroke="#FFFFFF" stroke-width="11" points="1845.4,1992.6 1483.9,1990.9 1296.5,1702.5 739.4,1702.5 			
				"/>
			<g>
				<path fill="#FFFFFF" d="M673,1702.5c31.2-11.6,70-31.4,94-52.3l-18.9,52.3l18.9,52.3C743,1733.9,704.2,1714.1,673,1702.5z"/>
			</g>
		</g>
	</g>
</g>
</svg>
